<svg width="43" height="36" viewBox="0 0 43 36" fill="none" xmlns="http://www.w3.org/2000/svg">
<path d="M0.101807 2.16499L2.22313 0.0993652L21.0887 18.4696L18.9674 20.5352L0.101807 2.16499Z" fill="#FF3DF7"/>
<path d="M18.9673 16.5537L21.0887 18.6193L4.02719 35.2328L1.90587 33.1672L18.9673 16.5537Z" fill="#FF3DF7"/>
<path d="M22 2.06563L24.1213 0L42.9869 18.3703L40.8656 20.4359L22 2.06563Z" fill="#FF3DF7"/>
<path d="M40.8655 16.4543L42.9868 18.5199L25.9254 35.1335L23.8041 33.0678L40.8655 16.4543Z" fill="#FF3DF7"/>
<path d="M11 2.06563L13.1213 0L31.9869 18.3703L29.8656 20.4359L11 2.06563Z" fill="#FF3DF7"/>
<path d="M29.8655 16.4543L31.9868 18.5199L14.9254 35.1335L12.8041 33.0678L29.8655 16.4543Z" fill="#FF3DF7"/>
</svg>
