<svg width="113" height="30" viewBox="0 0 113 30" xmlns="http://www.w3.org/2000/svg">
<g clip-path="url(#clip0_443_295)">
<path d="M7.29039 19.2857H2.43018V-0.142857H7.29039V19.2857Z"/>
<path d="M10.9355 -0.142857H16.914L21.3811 13.1845L25.7473 -0.142857H31.5915V19.2857H27.6618V5.4812L22.9596 19.2857H19.7017L14.966 5.61754V19.2857H10.9355V-0.142857Z"/>
<path d="M48.4002 3.36792H38.1971V7.59449H47.5584V10.9348H38.1971V15.7068H48.6023V19.2857H34.0216V-0.142857H48.4002V3.36792Z"/>
<path d="M60.0585 -0.142857C63.3956 -0.142857 66.1606 1.45915 66.1606 5.37895C66.1606 7.62857 65.08 9.401 63.3002 10.1509C65.3025 10.594 65.811 12.7754 65.9699 14.6842C66.0653 15.9113 66.1288 18.5699 66.828 19.2857H62.6964C62.2514 18.2972 62.2514 16.3544 62.1243 15.2977C61.87 12.6391 61.1073 11.6847 58.5011 11.6847H54.9733V19.2857H51.0323V-0.142857H60.0585ZM55.0051 8.58296H58.7554C60.5988 8.58296 62.2514 8.24211 62.2514 5.82206C62.2514 3.57243 60.5988 3.19749 58.9143 3.19749H54.9733V8.58296H55.0051Z"/>
<path d="M79.2413 5.7773C79.0771 3.97836 77.862 2.99711 75.6946 2.99711C73.79 2.99711 72.6734 3.78211 72.6734 5.12314C72.6734 6.75854 74.6766 6.88937 78.3875 7.93603C81.7371 8.88456 83.8388 10.1602 83.8388 13.2674C83.8388 17.6503 79.9638 19.2857 76.1544 19.2857C71.0971 19.2857 68.0759 16.8653 68.0431 12.646H72.1152C72.1808 15.1645 73.8556 16.1457 76.3514 16.1457C78.5188 16.1457 79.8324 15.1972 79.8324 13.6599C79.8324 12.1881 78.5845 11.9264 74.7095 10.847C71.6554 9.99663 68.7327 9.21164 68.7327 5.41751C68.7327 2.04858 71.5569 -0.142857 75.9245 -0.142857C79.8652 -0.142857 83.0506 1.62338 83.1163 5.81001H79.2413V5.7773Z"/>
<path d="M89.9141 19.2857H86.2689V-0.142857H89.9141V19.2857Z"/>
<path d="M110.57 9.5877C110.57 15.3805 106.905 19.2857 101.489 19.2857C96.0087 19.2857 92.3441 15.413 92.3441 9.5877C92.3441 3.6973 95.9763 -0.142857 101.489 -0.142857C106.905 -0.142857 110.57 3.79493 110.57 9.5877ZM96.4628 9.52261C96.4628 13.4929 98.3761 15.9012 101.522 15.9337C104.57 15.9337 106.484 13.4929 106.484 9.52261C106.484 5.61737 104.57 3.20914 101.489 3.20914C98.4086 3.1766 96.4628 5.64992 96.4628 9.52261Z"/>
<path d="M11.9593 29.8361C10.1635 29.8361 9 28.4892 9 26.4308C9 24.601 10.0623 23 12.0352 23C13.2746 23 14.5392 23.7878 14.691 25.1093H14.0839C13.8816 24.1436 13.0975 23.5337 12.0352 23.5337C10.5935 23.5337 9.63233 24.6773 9.63233 26.4053C9.63233 28.1334 10.5682 29.277 12.0099 29.277C13.2998 29.277 14.0333 28.3875 14.1598 27.1677H14.7668C14.6151 28.7942 13.5275 29.8361 11.9593 29.8361Z" fill="#BDBDBD"/>
<path d="M19.7505 23.1779C20.8887 23.1779 21.774 23.6862 21.774 24.9314C21.774 25.77 21.2934 26.3545 20.5093 26.5324C21.3187 26.6849 21.5969 27.1423 21.6475 28.0064C21.6728 28.2859 21.6728 29.3787 21.951 29.6836H21.2428C21.0658 29.4549 21.0911 28.5654 21.0405 28.2351C20.9646 27.0152 20.5093 26.7611 19.3206 26.7611H17.4236V29.6582H16.8165V23.1779H19.7505ZM17.4236 26.2783H19.2447C20.1552 26.2783 21.1417 26.1258 21.1417 24.9568C21.1417 23.9657 20.3576 23.6862 19.5229 23.6862H17.3983V26.2783H17.4236Z" fill="#BDBDBD"/>
<path d="M28.5283 23.7116H24.6332V26.075H28.2754V26.5832H24.6332V29.1754H28.5536V29.709H24.0261V23.1779H28.5283V23.7116Z" fill="#BDBDBD"/>
<path d="M35.9908 29.6836H35.3079L34.5238 27.6252H31.5645L30.7804 29.6836H30.1228L32.7533 23.1525H33.4362L35.9908 29.6836ZM33.0568 23.737L31.7416 27.1423H34.3215L33.0568 23.737Z" fill="#BDBDBD"/>
<path d="M41.4044 23.7116H39.1281V29.6836H38.521V23.7116H36.2446V23.1779H41.4044V23.7116Z" fill="#BDBDBD"/>
<path d="M43.8083 29.6836H43.2013V23.1779H43.8083V29.6836Z" fill="#BDBDBD"/>
<path d="M48.7415 29.6836H48.0333L45.6051 23.1779H46.288L47.9827 27.8539C48.1344 28.2859 48.2862 28.7179 48.3874 29.1499C48.5391 28.7179 48.6403 28.2859 48.8173 27.8539L50.512 23.1525H51.1696L48.7415 29.6836Z" fill="#BDBDBD"/>
<path d="M57.3927 23.7116H53.5228V26.075H57.1651V26.5832H53.5228V29.1754H57.4433V29.709H52.8905V23.1779H57.3927V23.7116Z" fill="#BDBDBD"/>
<path d="M67.876 25.0076C67.8255 24.0165 67.1172 23.5337 66.0802 23.5337C65.0685 23.5337 64.4615 23.9911 64.4615 24.7535C64.4615 25.5921 65.1697 25.77 66.2067 25.9987C67.6484 26.3037 68.6854 26.5832 68.6854 27.8793C68.6854 29.277 67.4461 29.7853 66.2573 29.7853C64.6385 29.7853 63.6774 28.9466 63.6774 27.5489V27.4981H64.2591C64.2591 28.7179 65.0685 29.277 66.3079 29.277C67.4208 29.277 68.1037 28.7687 68.1037 27.9301C68.1037 27.0407 67.4208 26.8628 65.9032 26.4816C64.9167 26.2529 63.8797 26.0241 63.8797 24.7789C63.8797 23.6861 64.7397 23 66.1308 23C67.4966 23 68.4325 23.6607 68.4831 25.0076H67.876Z" fill="#BDBDBD"/>
<path d="M75.1868 23.6861H72.9104V29.6582H72.3034V23.6861H70.027V23.1525H75.1868V23.6861Z" fill="#BDBDBD"/>
<path d="M81.9664 27.2186C81.9664 28.8958 81.157 29.8107 79.4623 29.8107C77.7677 29.8107 76.9077 28.9212 76.9077 27.2186V23.1525H77.5148V27.0407C77.5148 28.4384 77.8942 29.277 79.4623 29.277C81.0052 29.277 81.334 28.3875 81.334 27.0407V23.1525H81.9411V27.2186H81.9664Z" fill="#BDBDBD"/>
<path d="M86.6971 23.1525C88.7206 23.1525 89.5805 24.4485 89.5805 26.2783C89.5805 28.108 88.7712 29.6582 86.7477 29.6582H84.3448V23.1525H86.6971ZM84.9772 29.1245H86.5959C88.4929 29.1245 88.9735 27.803 88.9735 26.3037C88.9735 24.6773 88.1894 23.6607 86.6971 23.6607H84.9772V29.1245Z" fill="#BDBDBD"/>
<path d="M92.3639 29.6582H91.7568V23.1525H92.3639V29.6582Z" fill="#BDBDBD"/>
<path d="M100.61 26.4308C100.61 28.4638 99.3709 29.8361 97.5498 29.8361C95.7287 29.8361 94.5146 28.4638 94.5146 26.4308C94.5146 24.3977 95.754 23.0254 97.5751 23.0254C99.3709 23 100.61 24.3723 100.61 26.4308ZM95.1217 26.3799C95.1217 28.1334 96.0828 29.277 97.5498 29.277C99.0168 29.277 99.978 28.1334 99.978 26.4053C99.978 24.6773 98.9915 23.5337 97.5245 23.5337C96.0828 23.5337 95.1217 24.6773 95.1217 26.3799Z" fill="#BDBDBD"/>
</g>
<defs>
<clipPath id="clip0_443_295">
<rect width="113" height="30" fill="white"/>
</clipPath>
</defs>
</svg>
