<svg width="40" height="35" viewBox="0 0 40 35" fill="none" xmlns="http://www.w3.org/2000/svg">
<path d="M40 2.15073L38.0214 0.0987549L20.425 18.3476L22.4036 20.3996L40 2.15073Z" fill="#FF3DF7"/>
<path d="M22.4036 16.4443L20.425 18.4963L36.3387 35L38.3173 32.9481L22.4036 16.4443Z" fill="#FF3DF7"/>
<path d="M19.575 2.05198L17.5963 0L-4.32989e-05 18.2489L1.97857 20.3008L19.575 2.05198Z" fill="#FF3DF7"/>
<path d="M1.97859 16.3456L-2.01715e-05 18.3976L15.9136 34.9013L17.8923 32.8493L1.97859 16.3456Z" fill="#FF3DF7"/>
<path d="M29.835 2.05198L27.8564 0L10.26 18.2489L12.2386 20.3008L29.835 2.05198Z" fill="#FF3DF7"/>
<path d="M12.2386 16.3456L10.26 18.3976L26.1737 34.9013L28.1523 32.8493L12.2386 16.3456Z" fill="#FF3DF7"/>
</svg>
